
<svg width="700" height="225" viewBox="0 0 556 188" fill="none" xmlns="http://www.w3.org/2000/svg"
    class="flex flex-row h-full w-full max-h-[70px] max-w-[100px]"
>
    <path d="M107.355 49.7018C114.201 49.8895 120.837 47.3497 125.817 42.6567C128.236 40.4151 130.146 37.6766 131.427 34.651C132.719 31.6143 133.348 28.3458 133.282 25.0441C133.359 21.7093 132.73 18.3966 131.449 15.3158C130.157 12.235 128.247 9.46332 125.817 7.17755C120.782 2.56183 114.201 0 107.377 0C100.553 0 93.9602 2.56183 88.9359 7.17755C86.5066 9.46332 84.5852 12.235 83.3043 15.3158C82.0124 18.3966 81.394 21.7093 81.4713 25.0441C81.405 28.3458 82.0345 31.6143 83.3264 34.651C84.6184 37.6876 86.5287 40.4151 88.9359 42.6567C93.905 47.3497 100.53 49.8784 107.355 49.7018Z" fill="#ffffff"/>
    <path d="M0 117.348H41.9169L17.9218 163.703H80.2891L131.04 65.7686H26.7557L0 117.348Z" fill="#ffffff"/>
    <path d="M39.3112 122.781L41.608 117.348H104.185L38.4609 124.028" fill="#0C0C0C" fill-opacity="0.6"/>
    <path d="M243.986 36.7212C246.582 36.791 249.099 35.8301 250.988 34.0489C251.904 33.1973 252.629 32.162 253.118 31.0108C253.606 29.8595 253.845 28.6182 253.821 27.368C253.85 26.1033 253.613 24.8465 253.125 23.6794C252.637 22.5123 251.909 21.4609 250.988 20.5935C249.08 18.8414 246.584 17.8691 243.993 17.8691C241.403 17.8691 238.906 18.8414 236.998 20.5935C236.077 21.4609 235.349 22.5123 234.861 23.6794C234.373 24.8465 234.136 26.1033 234.166 27.368C234.141 28.6182 234.381 29.8595 234.869 31.0108C235.357 32.162 236.083 33.1973 236.998 34.0489C238.883 35.8281 241.395 36.7889 243.986 36.7212Z" fill="#ffffff"/>
    <path d="M252.324 42.8139H213.762V36.3067C213.756 35.8988 213.834 35.4941 213.99 35.1172C214.146 34.7404 214.378 34.3995 214.671 34.1154C214.954 33.8213 215.295 33.5889 215.672 33.4325C216.049 33.2762 216.454 33.1993 216.862 33.2068H226.696V19.6445H213.228C208.239 19.6445 204.324 21.0653 201.483 23.907C198.637 26.753 197.207 30.6814 197.207 35.6654V42.8139H188.027V56.3762H197.207V97.6108H213.762V56.3762H235.662V73.9604H252.324V42.8139Z" fill="#ffffff"/>
    <path d="M252.311 97.611H252.324V85.5586H235.662V85.9461H252.311V97.611Z" fill="#ffffff"/>
    <path d="M268.453 47.1967C265.611 50.0383 264.186 53.9533 264.177 58.9417V97.6109H280.692V60.0107C280.669 59.5147 280.752 59.0196 280.937 58.5586C281.121 58.0976 281.402 57.6815 281.761 57.3383C282.449 56.6745 283.371 56.3095 284.326 56.3228H296.178V42.9209H280.304C275.218 42.9209 271.267 44.3461 268.453 47.1967Z" fill="#ffffff"/>
    <path d="M310.796 75.3371C313.875 76.5499 317.161 77.149 320.47 77.1009H330.131C330.803 77.0916 331.466 77.2574 332.055 77.5819C332.605 77.908 333.065 78.3675 333.391 78.9181C333.75 79.4949 333.936 80.1628 333.926 80.8422C333.924 81.4865 333.739 82.117 333.391 82.6594C333.061 83.2072 332.603 83.666 332.055 83.9956C331.464 84.3145 330.802 84.48 330.131 84.4766H303.701V97.6113H332.429C335.593 97.6556 338.709 96.843 341.448 95.2596C344.085 93.7336 346.292 91.5636 347.862 88.9528C349.465 86.3173 350.299 83.2855 350.267 80.2008C350.415 76.7269 349.582 73.2816 347.862 70.2596C346.293 67.7252 343.951 65.7624 341.181 64.661C337.893 63.4124 334.395 62.8134 330.879 62.8972H321.526C321.061 62.9044 320.599 62.8181 320.167 62.6434C319.736 62.4687 319.344 62.2091 319.015 61.8801C318.686 61.5511 318.427 61.1594 318.252 60.7281C318.077 60.2969 317.991 59.8349 317.998 59.3697C317.99 58.928 318.077 58.4896 318.252 58.0841C318.427 57.6785 318.687 57.315 319.014 57.018C319.348 56.6993 319.742 56.4502 320.173 56.285C320.605 56.1199 321.064 56.042 321.526 56.056H345.337V42.8144H318.867C315.786 42.7827 312.754 43.5812 310.088 45.126C307.495 46.6205 305.328 48.7552 303.795 51.3259C302.255 53.9051 301.459 56.8604 301.496 59.8641C301.335 63.3319 302.21 66.7693 304.008 69.7385C305.636 72.2628 308.008 74.2191 310.796 75.3371Z" fill="#ffffff"/>
    <path d="M379.209 42.8145H362.547V56.3767H379.209V42.8145Z" fill="#ffffff"/>
    <path d="M394.268 42.8145H379.209V56.3767H394.268V42.8145Z" fill="#ffffff"/>
    <path d="M362.533 42.8145H353.567V56.3767H362.533V42.8145Z" fill="#ffffff"/>
    <path d="M379.209 29.4658H362.547V42.8143H379.209V29.4658Z" fill="#ffffff"/>
    <path d="M362.546 81.5897C362.434 83.7262 362.754 85.8633 363.489 87.8726C364.224 89.8819 365.358 91.7217 366.822 93.2814C369.664 96.1675 373.614 97.6106 378.674 97.6106H394.267V83.7276H382.242C381.834 83.7335 381.429 83.656 381.052 83.4997C380.675 83.3435 380.334 83.1118 380.05 82.819C379.756 82.5359 379.524 82.1952 379.368 81.8181C379.211 81.4411 379.134 81.0358 379.142 80.6277V56.376H362.546V81.5897Z" fill="#ffffff"/>
    <path d="M216.702 130.962C213.41 129.713 209.907 129.114 206.387 129.198H197.034C196.568 129.205 196.106 129.119 195.675 128.944C195.244 128.769 194.852 128.51 194.523 128.181C194.194 127.852 193.935 127.46 193.76 127.029C193.585 126.597 193.499 126.136 193.506 125.67C193.498 125.229 193.584 124.79 193.759 124.385C193.935 123.979 194.194 123.616 194.522 123.319C194.857 123.001 195.251 122.753 195.682 122.588C196.113 122.423 196.572 122.344 197.034 122.357H220.844V109.115H194.428C191.334 109.087 188.29 109.899 185.623 111.467C183.026 112.956 180.854 115.086 179.316 117.653C177.777 120.238 176.982 123.197 177.017 126.205C176.863 129.672 177.737 133.107 179.53 136.079C181.18 138.595 183.57 140.537 186.371 141.638C189.445 142.851 192.727 143.45 196.031 143.401H205.639C206.311 143.391 206.974 143.557 207.563 143.882C208.113 144.208 208.573 144.668 208.899 145.219C209.261 145.794 209.447 146.463 209.433 147.143C209.432 147.787 209.246 148.418 208.899 148.96C208.574 149.512 208.114 149.971 207.563 150.296C206.974 150.622 206.311 150.788 205.639 150.777H179.262V163.912H207.99C211.159 163.967 214.283 163.153 217.023 161.56C219.652 160.035 221.854 157.87 223.423 155.267C225.027 152.631 225.86 149.599 225.828 146.515C225.976 143.041 225.143 139.596 223.423 136.574C221.845 134.029 219.488 132.061 216.702 130.962Z" fill="#ffffff"/>
    <path d="M279.716 111.039C275.879 108.802 271.489 107.691 267.049 107.833C264.444 107.838 261.854 108.235 259.366 109.008C256.798 109.796 254.404 111.066 252.311 112.75V97.6108H235.662V85.9326V163.899H252.324V132.726C252.292 130.844 252.792 128.991 253.767 127.381C254.741 125.806 256.102 124.508 257.721 123.609C259.34 122.711 261.162 122.243 263.014 122.25C264.873 122.231 266.701 122.731 268.292 123.693C269.875 124.635 271.198 125.958 272.14 127.541C273.118 129.204 273.617 131.104 273.583 133.033V163.899H290.138V132.392C290.198 128.045 289.285 123.74 287.466 119.792C285.802 116.174 283.106 113.129 279.716 111.039Z" fill="#ffffff"/>
    <path d="M252.311 85.9463H235.662V97.6112H252.311V85.9463Z" fill="#ffffff"/>
    <path d="M319.174 109.115H302.512V163.899H319.174V109.115Z" fill="#ffffff"/>
    <path d="M381.347 116.224C378.773 113.516 375.641 111.4 372.168 110.024C368.232 108.504 364.04 107.76 359.821 107.832C354.428 107.709 349.094 108.979 344.335 111.52C340.021 113.909 336.483 117.484 334.14 121.822C331.618 126.663 330.367 132.066 330.505 137.523V187.082H347.061V157.926H347.381C348.445 159.51 349.806 160.871 351.39 161.935C353.036 163.018 354.839 163.842 356.735 164.38C358.763 164.963 360.864 165.251 362.975 165.235C367.768 165.345 372.498 164.129 376.644 161.721C380.559 159.369 383.757 155.991 385.89 151.953C388.198 147.518 389.356 142.575 389.257 137.576C389.304 133.517 388.616 129.484 387.226 125.671C385.929 122.155 383.929 118.94 381.347 116.224ZM370.778 143.722C369.818 145.77 368.322 147.52 366.449 148.787C364.467 150.081 362.134 150.734 359.768 150.657C357.403 150.721 355.075 150.069 353.087 148.787C351.196 147.54 349.695 145.784 348.758 143.722C347.727 141.44 347.216 138.957 347.261 136.453C347.22 133.937 347.731 131.442 348.758 129.145C349.684 127.058 351.186 125.278 353.087 124.014C355.077 122.738 357.404 122.086 359.768 122.143C362.133 122.072 364.464 122.725 366.449 124.014C368.333 125.296 369.831 127.071 370.778 129.145C371.835 131.434 372.365 133.932 372.328 136.453C372.369 138.963 371.839 141.448 370.778 143.722Z" fill="#ffffff"/>
    <path d="M446.98 116.224C444.401 113.516 441.264 111.4 437.787 110.024C433.856 108.504 429.668 107.76 425.454 107.833C420.06 107.707 414.726 108.977 409.968 111.521C405.634 113.901 402.076 117.477 399.719 121.823C397.197 126.664 395.946 132.066 396.085 137.523V187.082H412.64V157.926H412.974C414.037 159.51 415.399 160.871 416.982 161.935C418.63 163.017 420.432 163.841 422.327 164.38C424.36 164.962 426.466 165.25 428.581 165.235C433.374 165.345 438.104 164.129 442.25 161.721C446.164 159.373 449.358 155.994 451.483 151.954C453.791 147.518 454.949 142.575 454.85 137.576C454.897 133.518 454.209 129.484 452.819 125.671C451.534 122.158 449.548 118.944 446.98 116.224ZM436.397 143.723C435.441 145.773 433.945 147.524 432.068 148.787C430.107 150.073 427.798 150.726 425.454 150.657C423.089 150.722 420.76 150.07 418.773 148.787C416.876 147.547 415.374 145.789 414.444 143.723C413.413 141.44 412.902 138.958 412.947 136.454C412.906 133.937 413.417 131.443 414.444 129.145C415.365 127.011 416.906 125.203 418.867 123.955C420.827 122.707 423.117 122.076 425.441 122.143C427.784 122.082 430.091 122.734 432.055 124.014C433.943 125.293 435.441 127.068 436.384 129.145C437.441 131.434 437.971 133.932 437.934 136.454C437.979 138.962 437.454 141.447 436.397 143.723Z" fill="#ffffff"/>
    <path d="M502.365 111.467C497.981 108.915 492.964 107.655 487.894 107.833C483.062 107.781 478.299 108.978 474.065 111.307C469.896 113.623 466.444 117.038 464.084 121.181C461.481 125.88 460.189 131.192 460.342 136.561C460.236 141.589 461.586 146.54 464.23 150.818C466.91 154.987 470.706 158.321 475.187 160.439C480.295 162.837 485.888 164.021 491.529 163.899H507.763V150.23H490.994C488.892 150.261 486.799 149.954 484.794 149.321C483.051 148.779 481.471 147.81 480.198 146.502C478.975 145.183 478.13 143.558 477.753 141.799H513.629C513.808 140.827 513.933 139.845 514.003 138.859C514.11 137.617 514.164 136.534 514.164 135.599C514.263 130.665 513.244 125.773 511.184 121.288C509.254 117.232 506.191 113.822 502.365 111.467ZM477.325 131.51C477.541 130.217 477.876 128.947 478.327 127.715C478.781 126.501 479.451 125.378 480.305 124.402C481.198 123.416 482.291 122.633 483.512 122.103C486.014 121.086 488.792 120.973 491.368 121.783C492.329 122.122 493.23 122.609 494.041 123.226C494.823 123.843 495.519 124.562 496.112 125.364C496.739 126.211 497.193 127.174 497.448 128.196C497.746 129.283 497.961 130.391 498.089 131.51H477.325Z" fill="#ffffff"/>
    <path d="M539.483 109.263C534.419 109.263 530.477 110.692 527.618 113.538C524.758 116.385 523.355 120.3 523.355 125.284V163.939H539.911V126.312C539.884 125.816 539.966 125.32 540.15 124.858C540.335 124.397 540.618 123.981 540.98 123.64C541.318 123.308 541.719 123.048 542.16 122.873C542.6 122.699 543.071 122.614 543.545 122.625H555.397V109.263H539.483Z" fill="#ffffff"/>
    </svg>
